<?xml version="1.0" standalone="no"?>
<!DOCTYPE svg PUBLIC "-//W3C//DTD SVG 20010904//EN"
 "http://www.w3.org/TR/2001/REC-SVG-20010904/DTD/svg10.dtd">
<svg version="1.0" xmlns="http://www.w3.org/2000/svg"
 width="326.000000pt" height="326.000000pt" viewBox="0 0 326.000000 326.000000"
 preserveAspectRatio="xMidYMid meet">
<metadata>
Created by potrace 1.11, written by Peter Selinger 2001-2013
</metadata>
<g transform="translate(0.000000,326.000000) scale(0.100000,-0.100000)"
fill="#000000" stroke="none">
<path d="M1108 2333 c-217 -196 -407 -406 -591 -653 -136 -181 -472 -678 -464
-686 18 -19 82 48 177 187 48 69 327 434 389 508 22 25 65 78 97 116 63 76
105 122 201 224 78 85 165 188 227 274 28 37 53 67 58 67 4 0 19 -39 34 -87
103 -341 94 -317 178 -482 62 -123 139 -240 159 -242 45 -4 79 5 175 48 29 12
60 23 69 23 9 0 55 -37 102 -82 48 -46 100 -94 116 -108 50 -41 170 -144 175
-150 33 -38 304 -200 334 -200 10 0 35 12 53 26 42 32 71 29 164 -14 74 -35
355 -132 381 -132 10 0 18 6 18 14 0 15 -46 34 -102 43 -33 5 -218 67 -303
101 -88 35 -117 35 -166 3 l-43 -29 -40 27 c-23 16 -93 63 -157 105 -106 70
-316 232 -364 281 -68 69 -149 135 -166 135 -10 0 -59 -16 -107 -36 -106 -43
-118 -46 -131 -31 -35 43 -242 480 -280 590 -23 71 -52 149 -62 173 -28 61
-51 59 -131 -13z"/>
</g>
</svg>
